<?xml version="1.0" standalone="yes"?>
<svg xmlns="http://www.w3.org/2000/svg" width="2200" height="834">
<path style="fill:#eee; stroke:none;" d="M425 56L425 165C418.841 157.359 412.661 150.759 404 145.876C369.649 126.509 321.887 136.264 297.669 167C269.006 203.377 268.353 264.741 295.756 302C316.794 330.604 354.246 341.009 388 332.37C403.178 328.486 419.779 319.496 427 305C429.366 313.003 428 322.68 428 331L469 331L469 56L425 56M738 56L738 331L781 331L781 56L738 56M2120 56L2120 331L2163 331L2163 56L2120 56M1197 193C1178.16 198.426 1157.64 213.288 1147.46 230C1132.8 254.08 1133.61 288.169 1152.3 310C1181.25 343.818 1237.92 341.877 1275 324.297C1286.1 319.034 1298.44 311.888 1306 302L1325 321C1328.21 324.212 1331.62 328.78 1336 330.397C1342.71 332.869 1352.89 331 1360 331C1352.18 319.895 1340.6 310.6 1331 301C1327.72 297.722 1320.53 292.82 1319.73 288C1319.13 284.382 1323.28 279.928 1324.99 277C1329.4 269.454 1332.58 261.272 1335.33 253C1342.88 230.35 1343.97 207.51 1341 184L1323 184C1323.37 192.687 1325.34 201.268 1324.96 210C1323.88 234.656 1316.87 254.591 1305 276C1288.57 259.428 1272.48 242.511 1256 226C1246.31 216.298 1235.84 207.527 1227 197C1241.25 194.548 1256.1 185.9 1268 177.996C1276.21 172.544 1283.56 165.408 1288.77 157C1293.08 150.033 1295.72 142.117 1296.71 134C1297.93 124.119 1297.28 113.393 1293.91 104C1277.18 57.4188 1208.03 52.9668 1178.15 88.0146C1171.64 95.6479 1167.62 105.255 1165.51 115C1163.03 126.451 1164.16 139.941 1168.09 151C1173.94 167.445 1185.75 180.118 1197 193M1733 236L1686 236C1673.43 290.341 1604.98 308.812 1561 279.768C1538.07 264.625 1526.21 235.739 1525.04 209C1523.62 176.666 1532.02 141.161 1560 121.57C1603.69 90.983 1673.48 110.879 1686 165L1733 165C1732.22 155.46 1728.74 145.829 1725.2 137C1697.6 68.2086 1610.85 49.2346 1548 78.3094C1503.55 98.8749 1480.11 146.785 1478.04 194C1475.84 244.188 1498.39 296.283 1544 320.511C1606.35 353.629 1697.46 333.343 1725.2 264C1728.78 255.041 1731.76 245.591 1733 236M16 331L63 331C65.8232 319.087 71.436 307.482 75.6813 296C77.2748 291.69 78.5377 284.562 82.2778 281.603C84.7125 279.677 88.0875 280.006 91 280L108 280L172 280L189 280C191.432 280.005 194.456 279.641 196.606 281.028C200.087 283.273 201.202 289.356 202.576 293L211.95 318C213.231 321.436 214.206 326.731 216.843 329.397C219.679 332.264 226.332 331 230 331L265 331C259.064 309.296 248.434 288.056 240.424 267C223.386 222.21 205.998 177.495 188.2 133C181.969 117.422 176.249 101.644 170.189 86C168.576 81.8345 166.549 71.7574 161.775 70.3179C158.538 69.3416 154.349 70 151 70L128 70C124.622 70 119.389 69.0605 116.702 71.6034C111.788 76.2549 109.873 87.7646 107.399 94C100.272 111.961 93.02 129.875 86.3187 148C71.2075 188.871 54.9286 229.366 39.189 270C31.4769 289.91 20.9286 310.202 16 331M1224 81.2894C1239.81 79.2354 1259.26 84.5349 1269.67 97.0038C1280.03 109.409 1281.2 129.245 1275.53 144C1269.11 160.725 1253.26 169 1238 176.255C1231.78 179.212 1223.86 183.46 1217 184.413C1212.33 185.061 1209.02 181.138 1206.17 177.999C1199.18 170.311 1192.15 161.534 1187.86 152C1178.3 130.715 1181.51 102.323 1202 88.5988C1208.32 84.3638 1216.52 82.2617 1224 81.2894M140 125C149.297 144.879 155.621 166.485 163.424 187C170.013 204.322 178.818 221.925 183 240L96 240C98.8848 229.453 103.687 219.222 107.576 209C113.139 194.375 118.484 179.662 123.95 165C127.31 155.986 130.685 146.954 134.203 138C135.912 133.65 137.199 128.743 140 125M693 271L665 271C660.75 271 655.316 270.106 651.213 271.318C647.58 272.391 645.917 277.283 643.671 280C639.186 285.427 633.475 290.273 627 293.123C592.791 308.182 554.967 285.275 552 248L697 248C697 239.748 697.625 231.216 696.83 223C694.303 196.88 682.015 170.683 660.996 154.503C629.28 130.09 578.925 129.756 547 154.04C524.176 171.402 511.042 198.652 509.09 227C506.159 269.555 526.135 311.996 567 328.547C605.22 344.027 653.436 333.128 678.764 300C685.017 291.821 691.453 281.322 693 271M1006 271L977 271C972.914 271 967.031 269.945 963.213 271.603C959.405 273.257 957.382 278.956 954.699 281.961C950.195 287.005 944.136 290.921 938 293.687C916.457 303.399 888.604 296.289 874.789 277C868.416 268.102 866.871 258.216 864 248L1009 248C1009 239.092 1009.69 229.869 1008.83 221C1006.57 197.675 995.781 173.76 978 158.289C943.605 128.364 887.031 128.75 853 159.174C835.17 175.113 825.088 198.568 822.286 222C818.617 252.675 827.134 288.098 850.015 309.911C886.603 344.792 949.253 343.305 984.714 307.714C994.921 297.47 1001.41 284.558 1006 271M1767 200L1810 200C1816.22 170.243 1859.95 162.712 1880.96 182.185C1888.68 189.351 1890.92 199.86 1891 210C1879.28 210.925 1867.65 213.186 1856 214.718C1827.52 218.463 1793.07 221.105 1773.33 245C1757.99 263.568 1759.28 296.729 1774.47 314.985C1781.02 322.866 1790.34 328.156 1800 331.254C1823.53 338.803 1854.66 337.029 1876 324.073C1883.68 319.408 1888.47 312.794 1895 307C1895 315.058 1895.53 323.065 1897 331L1939 331C1932.82 314.419 1933 296.444 1933 279L1933 222C1933 201.593 1933.3 181.464 1920.96 164C1907.84 145.438 1885.47 138.978 1864 136.831C1827.45 133.177 1787.52 143.428 1771.87 180C1769.23 186.18 1767.55 193.308 1767 200M2027 166C2024.72 158.279 2026 149.025 2026 141L1986 141L1986 331L2029 331L2029 258C2029 242.816 2027.64 226.797 2031.75 212C2038.5 187.63 2063.6 174.19 2088 180L2088 139C2065.38 139 2038.28 143.346 2027 166M654 216L553 216C556.015 179.091 600.277 160.258 631 178.475C644.752 186.63 651.072 200.909 654 216M966 216L865 216C868.523 198.934 876.602 183.995 893 176.323C923.418 162.092 964.465 180.348 966 216M364 175.3C372.978 174.017 383.394 174.643 392 177.523C432.633 191.12 437.011 253.579 410.561 281.829C402.536 290.401 391.446 294.928 380 296.572C373.985 297.435 367.923 297.049 362 295.789C304.994 283.667 304.634 183.782 364 175.3M1211 205C1216.62 212.347 1224.57 218.195 1230.91 225C1251.31 246.902 1272.82 267.817 1294 289C1288.01 297.481 1278.15 303.588 1269 308.244C1239 323.502 1188.29 328.594 1165.49 297.985C1153.01 281.235 1152.64 254.575 1163.71 237C1170.61 226.051 1180.73 218.715 1192 212.706C1198 209.505 1204.21 206.017 1211 205M1891 242C1891 253.208 1891.06 264.554 1886.33 275C1877.47 294.546 1856.85 301.001 1837 301C1828.4 300.999 1819 300.258 1812.09 294.471C1803.43 287.213 1801.72 272.04 1808.56 263.015C1812.75 257.474 1819.49 253.946 1826 251.888C1835.13 249.004 1844.56 248.053 1854 246.714C1866.25 244.978 1878.59 242.103 1891 242M1306 441L1306 718L1323 718L1323 441L1306 441M1603 450.858C1585.38 458.027 1597.63 484.407 1614.98 476.347C1630.26 469.255 1618.99 444.352 1603 450.858M1446 477L1446 532L1408 532L1408 548L1446 548L1446 642C1446 659.202 1443.82 678.693 1450.45 695C1457.41 712.089 1473.61 718.561 1491 718.985C1495.17 719.087 1504.02 719.985 1506.97 716.262C1509.54 713.023 1508 704.947 1508 701C1493.1 704.672 1474.31 704.955 1466.63 689C1460.17 675.568 1463 657.474 1463 643L1463 548L1509 548L1509 532L1463 532L1463 477L1446 477M191 653L173 653C169.401 668.555 160.623 683.553 148 693.482C125.557 711.137 91.5993 711.331 68 695.899C43.6844 679.998 32.3237 650.205 33.0147 622C33.7204 593.192 48.2614 564.865 74 550.9C113.862 529.273 163.005 553.796 173 597L190 597C189.45 590.266 186.931 584.202 184.397 578C167.379 536.36 118.419 518.562 77 532.355C44.3463 543.229 21.8214 574.322 17.2824 608C13.0261 639.581 20.9718 674.762 44.0895 697.911C76.9113 730.775 139.844 732.039 170.385 695C180.677 682.518 186.621 668.432 191 653M350 528.439C330.063 531.545 311.373 539.353 297.09 554.039C262.08 590.037 260.841 654.076 293.3 692C304.99 705.658 320.765 714.93 338 719.705C350.266 723.104 364.446 723.374 377 721.572C386.558 720.199 396.516 717.219 405 712.564C467.763 678.124 470.832 580.263 411 541.345C401.954 535.461 391.627 531.576 381 529.754C370.97 528.034 360.148 526.858 350 528.439M571 561L571 532L555 532L555 718L571 718L571 629C571 609.9 569.912 589.222 579.677 572C598.386 539.003 655.793 529.975 677.532 565C688.114 582.048 687 602.765 687 622L687 718L704 718L704 629C704 611.529 705.775 593.052 701.265 576C693.035 544.878 666.315 528.012 635 528C623.905 527.996 613.253 529.341 603 533.862C594.213 537.736 586.615 542.917 580.093 550C576.843 553.53 574.531 557.764 571 561M817 661L800 661C802.055 677.245 807.144 693.482 820.015 704.56C826.13 709.823 833.468 714.052 841 716.935C875.394 730.1 932.054 722.738 943.957 682C945.604 676.363 946.005 669.789 945.281 664C944.458 657.423 943.353 650.893 940.095 645C926.311 620.065 889.532 618.98 865 613.349C848.426 609.544 830.411 601.262 829.091 582C827.694 561.624 845.202 549.39 863 545.13C891.429 538.327 925.458 553.066 928 585L945 585C944.95 579.011 943.627 573.642 941.655 568C929.663 533.692 891.84 522.886 859 529.804C839.076 534.001 820.007 546.785 813.774 567C811.909 573.049 811.562 579.72 812.17 586C816.01 625.688 861.513 628.379 892 635.428C911.271 639.884 928.551 650.319 927.985 672C927.455 692.305 905.101 704.555 887 705.911C861.011 707.858 831.551 702.235 820.454 675C818.625 670.512 817.394 665.824 817 661M1748 561L1748 532L1731 532L1731 718L1748 718L1748 629C1748 609.9 1746.91 589.222 1756.68 572C1775.37 539.026 1832.76 529.923 1854.53 565C1865.29 582.326 1864 603.466 1864 623L1864 718L1881 718L1881 628C1881 609.772 1882.76 590.683 1877.43 573C1868.53 543.444 1841.74 528.002 1812 528C1800.75 527.999 1790.47 529.454 1780 533.812C1771.18 537.481 1763.57 543.013 1757.09 550C1753.84 553.506 1751.43 557.702 1748 561M2139 677C2141.36 684.999 2140 694.688 2140 703C2140 717.759 2139.88 732.258 2133.69 746C2119.03 778.517 2081.8 790.015 2049 780.279C2035.86 776.38 2024.97 769.701 2016.31 759C2013.03 754.945 2010.69 746.896 2006.5 744.028C2002.52 741.297 1993.67 743 1989 743C2004.49 809.932 2110.16 819.003 2143.55 763C2159.32 736.534 2157 705.568 2157 676L2157 532L2140 532L2140 569C2131.5 557.306 2123.9 546.252 2111 538.873C2101.6 533.495 2091.55 530.776 2081 528.804C2071.81 527.087 2061.2 527.4 2052 528.92C2041.41 530.67 2031.26 533.932 2022 539.453C1976.56 566.542 1968.37 634.47 1993.43 678C2015.56 716.445 2066.72 729.594 2106 710.244C2119.43 703.63 2134.28 691.824 2139 677M1045 532L1045 631C1045 651.508 1043.76 673.543 1054.46 692C1077.68 732.032 1152.16 734.85 1174 691C1176.45 699.285 1175 709.386 1175 718L1192 718L1192 532L1175 532L1175 622C1175 641.507 1176.47 661.334 1166.69 679C1148.53 711.766 1092.66 719.488 1071.25 686C1060.62 669.388 1062 648.833 1062 630L1062 532L1045 532M1600 532L1600 718L1617 718L1617 532L1600 532M358 543.286C362.445 542.761 366.594 543.515 371 543.925C408.926 547.454 433.359 579.673 436.83 616C440.015 649.328 425.968 684.546 395 700.029C387.145 703.957 378.641 705.692 370 706.714C361.905 707.673 352.971 707.159 345 705.486C284.327 692.756 269.91 608.363 308.174 566.004C321.508 551.242 338.871 545.543 358 543.286M2066 543.286C2072.32 542.539 2078.77 543.867 2085 544.921C2112.62 549.595 2131.49 572.845 2137.87 599C2148.41 642.179 2129.44 696.638 2080 702.714C2061.39 705 2040.95 701.24 2026 689.482C1989.34 660.644 1986.12 596.06 2019.09 563.089C2032.16 550.023 2048.23 545.382 2066 543.286z"/>
</svg>
