<?xml version="1.0" standalone="no"?>
<!DOCTYPE svg PUBLIC "-//W3C//DTD SVG 20010904//EN"
 "http://www.w3.org/TR/2001/REC-SVG-20010904/DTD/svg10.dtd">
<svg version="1.0" xmlns="http://www.w3.org/2000/svg"
 width="260.000000pt" height="260.000000pt" viewBox="0 0 260.000000 260.000000"
 preserveAspectRatio="xMidYMid meet">
<metadata>
Created by potrace 1.14, written by Peter Selinger 2001-2017
</metadata>
<g transform="translate(0.000000,260.000000) scale(0.100000,-0.100000)"
fill="#000000" stroke="none">
<path d="M665 2248 c-2 -7 -94 -274 -204 -593 -110 -319 -203 -588 -206 -597
-7 -17 4 -18 133 -18 l141 0 43 138 44 137 221 3 221 2 44 -137 43 -138 46 -3
45 -3 1 -107 c5 -305 149 -511 410 -588 72 -21 227 -24 303 -5 85 21 185 78
246 140 61 62 120 170 130 238 l7 43 -130 0 -130 0 -12 -41 c-16 -52 -70 -112
-128 -140 -35 -17 -65 -23 -123 -23 -66 -1 -85 3 -136 29 -109 56 -162 157
-171 327 -14 253 88 415 274 434 130 14 256 -61 285 -169 l12 -47 128 0 c147
0 143 -4 112 101 -43 148 -167 271 -321 319 -239 74 -504 -3 -634 -184 l-29
-39 -13 34 c-8 19 -81 229 -162 467 l-148 432 -169 0 c-126 0 -170 -3 -173
-12z m248 -483 c36 -110 68 -210 72 -222 l6 -23 -150 0 c-103 0 -151 3 -151
11 0 25 145 448 151 441 4 -4 36 -97 72 -207z"/>
</g>
</svg>
